<svg width="350" height="350" viewBox="0 0 350 350" fill="none" xmlns="http://www.w3.org/2000/svg">
<path d="M175 43.75C138.756 43.75 109.375 73.1313 109.375 109.375C109.375 145.619 138.756 175 175 175C211.244 175 240.625 145.619 240.625 109.375C240.625 73.1313 211.244 43.75 175 43.75Z" fill="#3A52EE"/>
<path d="M240.625 196.875H109.375C94.3212 196.875 80.0288 203.386 71.414 213.927C62.3486 225.021 59.8402 240.586 69.6086 255.025C90.573 286.011 130.818 306.25 175 306.25C219.182 306.25 259.427 286.011 280.391 255.025C290.16 240.586 287.652 225.021 278.585 213.927C269.971 203.386 255.679 196.875 240.625 196.875Z" fill="#3A52EE"/>
</svg>
