<svg width="74" height="12" viewBox="0 0 74 12" fill="none" xmlns="http://www.w3.org/2000/svg">
<path d="M17.75 12H15.0568V3.27273H17.8693C18.7159 3.27273 19.4403 3.44744 20.0426 3.79688C20.6449 4.14347 21.1065 4.64205 21.4276 5.29261C21.7486 5.94034 21.9091 6.71591 21.9091 7.61932C21.9091 8.52841 21.7472 9.31108 21.4233 9.96733C21.0994 10.6207 20.6278 11.1236 20.0085 11.4759C19.3892 11.8253 18.6364 12 17.75 12ZM16.1136 11.0625H17.6818C18.4034 11.0625 19.0014 10.9233 19.4759 10.6449C19.9503 10.3665 20.304 9.97017 20.5369 9.45597C20.7699 8.94176 20.8864 8.32955 20.8864 7.61932C20.8864 6.91477 20.7713 6.30824 20.5412 5.79972C20.3111 5.28835 19.9673 4.89631 19.5099 4.62358C19.0526 4.34801 18.483 4.21023 17.8011 4.21023H16.1136V11.0625ZM23.6818 12V3.27273H28.9489V4.21023H24.7386V7.15909H28.6761V8.09659H24.7386V11.0625H29.017V12H23.6818ZM37.7741 3.27273V12H36.7514L31.9957 5.14773H31.9105V12H30.8537V3.27273H31.8764L36.6491 10.142H36.7344V3.27273H37.7741ZM39.4116 4.21023V3.27273H45.957V4.21023H43.2127V12H42.1559V4.21023H39.4116Z" fill="white"/>
<path d="M47.2898 3.27273H49.5653L51.9688 9.13636H52.071L54.4744 3.27273H56.75V12H54.9602V6.3196H54.8878L52.6293 11.9574H51.4105L49.152 6.2983H49.0795V12H47.2898V3.27273ZM58.2702 12V3.27273H64.1509V4.79403H60.1154V6.87358H63.8484V8.39489H60.1154V10.4787H64.168V12H58.2702ZM68.7116 12H65.6179V3.27273H68.7372C69.6151 3.27273 70.3707 3.44744 71.0043 3.79688C71.6378 4.14347 72.125 4.64205 72.4659 5.29261C72.8097 5.94318 72.9815 6.72159 72.9815 7.62784C72.9815 8.53693 72.8097 9.31818 72.4659 9.97159C72.125 10.625 71.6349 11.1264 70.9957 11.4759C70.3594 11.8253 69.598 12 68.7116 12ZM67.4631 10.419H68.6349C69.1804 10.419 69.6392 10.3224 70.0114 10.1293C70.3864 9.93324 70.6676 9.63068 70.8551 9.22159C71.0455 8.80966 71.1406 8.27841 71.1406 7.62784C71.1406 6.98295 71.0455 6.45597 70.8551 6.04688C70.6676 5.63778 70.3878 5.33665 70.0156 5.14347C69.6435 4.95028 69.1847 4.85369 68.6392 4.85369H67.4631V10.419Z" fill="#FF964B"/>
<g clip-path="url(#clip0_1_11)">
<path d="M5.64855 3.70369C6.02922 3.18293 6.581 2.81125 7.20818 2.65312C7.83535 2.495 8.49834 2.56041 9.08213 2.83802C9.66592 3.11562 10.1337 3.5879 10.4042 4.17292C10.6748 4.75794 10.7311 5.41879 10.5634 6.04082C10.087 7.80884 9.27267 7.80884 8.99568 10.5662C8.99568 10.7856 8.90813 10.996 8.7523 11.1511C8.59646 11.3062 8.3851 11.3934 8.16471 11.3934C7.94433 11.3934 7.73297 11.3062 7.57713 11.1511C7.4213 10.996 7.33375 10.7856 7.33375 10.5662V9.00388C7.33375 8.49652 6.96203 8.08457 6.50278 8.08457C6.04353 8.08457 5.67182 8.49597 5.67182 9.00388V10.5662C5.67182 10.6748 5.65032 10.7824 5.60856 10.8828C5.5668 10.9831 5.50559 11.0743 5.42843 11.1511C5.35127 11.2279 5.25966 11.2889 5.15885 11.3304C5.05803 11.372 4.94997 11.3934 4.84085 11.3934C4.73173 11.3934 4.62367 11.372 4.52285 11.3304C4.42204 11.2889 4.33043 11.2279 4.25327 11.1511C4.17611 11.0743 4.1149 10.9831 4.07314 10.8828C4.03138 10.7824 4.00988 10.6748 4.00988 10.5662C3.79217 7.80884 2.91855 7.80884 2.44213 6.04082C2.30033 5.51404 2.31865 4.95722 2.49477 4.44079C2.67088 3.92437 2.99688 3.47153 3.43153 3.13955C3.86618 2.80756 4.38997 2.61135 4.93665 2.57571C5.48333 2.54008 6.02835 2.66663 6.50278 2.93935" fill="#FF964B"/>
<path d="M4.91896 2.30185C4.31796 2.34014 3.74188 2.55509 3.26367 2.91949C2.93507 3.173 2.66223 3.49096 2.46207 3.85368C1.86931 4.0114 1.39012 4.1978 1.03945 4.42225C0.679923 4.65222 0.421216 4.94118 0.409583 5.3035C0.397395 5.66581 0.643361 5.96693 0.990705 6.20075C1.33528 6.43237 1.81059 6.62427 2.40556 6.7864C2.62106 7.30478 2.86813 7.67041 3.07975 8.06306C3.37336 8.60681 3.62819 9.23769 3.73455 10.5877L3.73345 10.5656C3.73345 10.9588 3.94507 11.325 4.28742 11.5213C4.45591 11.618 4.64695 11.6688 4.8414 11.6688C5.03585 11.6688 5.22689 11.618 5.39538 11.5213C5.73774 11.325 5.94936 10.9588 5.94936 10.5651V9.00442C5.94936 8.63107 6.21028 8.35919 6.50333 8.35919C6.79639 8.35919 7.05731 8.63107 7.05731 9.00442V10.5651C7.05731 10.9588 7.26893 11.325 7.61129 11.5213C7.77977 11.618 7.97081 11.6688 8.16526 11.6688C8.35972 11.6688 8.55076 11.618 8.71924 11.5213C9.0616 11.325 9.27322 10.9588 9.27322 10.5651L9.27211 10.5943C9.40784 9.2421 9.66322 8.60626 9.95018 8.06085C10.1579 7.66655 10.395 7.30038 10.605 6.78255C10.8944 6.70552 11.1785 6.60972 11.4553 6.49577C11.8791 6.31489 12.1899 6.11636 12.3893 5.86875C12.5888 5.62169 12.6508 5.2864 12.5278 5.00846C12.4043 4.72997 12.1522 4.51766 11.8077 4.3274C11.4808 4.14652 11.0526 3.98824 10.5368 3.85148C10.2342 3.30322 9.76759 2.86239 9.20176 2.59026C8.31816 2.17004 7.32987 2.24504 6.50389 2.66912C6.0042 2.41269 5.46075 2.26655 4.91896 2.30185ZM4.95497 2.85111C5.28292 2.82905 5.59813 2.96471 5.91446 3.0739C5.74438 3.22115 5.56268 3.3524 5.42585 3.54045C5.40318 3.56963 5.38661 3.60303 5.37712 3.63869C5.36763 3.67434 5.3654 3.71152 5.37057 3.74804C5.37575 3.78457 5.38822 3.81969 5.40725 3.85134C5.42627 3.883 5.45148 3.91053 5.48136 3.93233C5.51125 3.95413 5.54523 3.96975 5.58128 3.97827C5.61733 3.98679 5.65473 3.98806 5.69127 3.98196C5.72782 3.97586 5.76276 3.96254 5.79405 3.94278C5.82535 3.92302 5.85234 3.89722 5.87346 3.86691C6.21557 3.39798 6.71195 3.06324 7.2763 2.92087C7.84065 2.77851 8.43728 2.83753 8.96244 3.08769C9.4881 3.33695 9.90937 3.76175 10.153 4.28819C10.3966 4.81463 10.4472 5.40942 10.2959 5.96912C10.2604 6.09927 10.2205 6.20349 10.1817 6.31489C8.53366 6.70643 6.12441 6.82667 4.05919 6.54983C4.02232 6.54313 3.98448 6.54394 3.94794 6.55222C3.91141 6.5605 3.87694 6.57607 3.84662 6.59799C3.81631 6.61992 3.79078 6.64775 3.77158 6.67979C3.75238 6.71182 3.7399 6.74739 3.73491 6.78436C3.72993 6.82133 3.73252 6.85893 3.74255 6.89487C3.75258 6.93081 3.76983 6.96434 3.79326 6.99345C3.81668 7.02257 3.8458 7.04665 3.87884 7.06424C3.91189 7.08183 3.94818 7.09256 3.98551 7.09578C5.96875 7.36159 8.20903 7.30037 9.92359 6.95019C9.77678 7.24302 9.62056 7.49945 9.46046 7.80331C9.1519 8.38952 8.86161 9.13401 8.72035 10.5392C8.71954 10.5481 8.71917 10.5572 8.71924 10.5662C8.71931 10.6386 8.70506 10.7103 8.67729 10.7773C8.64951 10.8442 8.60877 10.905 8.55738 10.9563C8.50599 11.0076 8.44496 11.0482 8.37777 11.076C8.31059 11.1038 8.23857 11.1181 8.16582 11.1182C8.09307 11.1183 8.02102 11.1041 7.95378 11.0764C7.88654 11.0488 7.82543 11.0082 7.77394 10.9571C7.72244 10.9059 7.68158 10.8452 7.65367 10.7783C7.62576 10.7114 7.61136 10.6397 7.61129 10.5673V9.00553C7.61129 8.36362 7.12877 7.80994 6.50333 7.80994C5.87734 7.80994 5.39538 8.36362 5.39538 9.00553V10.5684C5.39531 10.6408 5.3809 10.7125 5.353 10.7794C5.32509 10.8463 5.28422 10.907 5.23273 10.9582C5.18124 11.0093 5.12013 11.0499 5.05289 11.0775C4.98565 11.1052 4.9136 11.1194 4.84085 11.1193C4.7681 11.1192 4.69608 11.1049 4.62889 11.0771C4.56171 11.0493 4.50068 11.0087 4.44929 10.9574C4.3979 10.9061 4.35715 10.8453 4.32938 10.7784C4.30161 10.7114 4.28735 10.6397 4.28742 10.5673C4.28735 10.5599 4.28698 10.5526 4.28632 10.5452C4.17552 9.13843 3.88468 8.39118 3.56781 7.80331C3.25093 7.21599 2.93793 6.81453 2.7108 5.97133C2.58284 5.49738 2.59907 4.99628 2.75746 4.53153C2.91584 4.06677 3.20924 3.65927 3.60049 3.36066C3.99148 3.06145 4.46287 2.8845 4.95497 2.85221V2.85111ZM8.29711 3.72575V3.72684C8.23061 3.72937 8.16724 3.75565 8.1186 3.80087C8.06996 3.8461 8.03931 3.90724 8.03225 3.97312C8.02519 4.039 8.04219 4.10521 8.08014 4.15963C8.1181 4.21405 8.17447 4.25305 8.23894 4.26949C8.53531 4.34603 8.79773 4.51843 8.98495 4.7596C9.17217 5.00078 9.27357 5.29704 9.27322 5.60184C9.27322 5.67497 9.3024 5.74511 9.35435 5.79682C9.40629 5.84853 9.47675 5.87757 9.55021 5.87757C9.62367 5.87757 9.69412 5.84853 9.74607 5.79682C9.79801 5.74511 9.8272 5.67497 9.8272 5.60184C9.82686 5.17536 9.68465 4.76102 9.42276 4.4235C9.16088 4.08598 8.79408 3.84429 8.37965 3.73621C8.35286 3.72842 8.32503 3.7247 8.29711 3.72519V3.72575ZM10.8216 4.51599C11.1041 4.60974 11.3567 4.70791 11.5401 4.80938C11.8243 4.966 11.9755 5.12702 12.0215 5.23125C12.0675 5.33548 12.0647 5.39118 11.9578 5.52408C11.8503 5.65754 11.6121 5.82904 11.2371 5.98952C11.1152 6.04191 10.9656 6.08769 10.8238 6.13511C10.826 6.12684 10.8293 6.12078 10.831 6.11251C10.9717 5.58913 10.9685 5.03769 10.8216 4.51599ZM2.18951 4.5204C2.04176 5.04027 2.03678 5.59008 2.17511 6.11251C2.17732 6.11968 2.18009 6.12354 2.18176 6.1307C1.81502 6.00718 1.49926 5.87703 1.30093 5.74302C1.03447 5.56379 0.960235 5.41655 0.963005 5.3206C0.966883 5.22519 1.05718 5.06691 1.33916 4.88658C1.53748 4.75974 1.84106 4.63676 2.18951 4.5204Z" fill="#FFDDC5"/>
</g>
<defs>
<clipPath id="clip0_1_11">
<rect width="13" height="10" fill="white" transform="translate(0 2)"/>
</clipPath>
</defs>
</svg>
