<svg width="74" height="14" viewBox="0 0 74 14" fill="none" xmlns="http://www.w3.org/2000/svg">
<path d="M14.72 12.892V5.296H18.044C18.708 5.296 19.264 5.352 19.712 5.464C20.16 5.568 20.52 5.756 20.792 6.028C21.064 6.3 21.26 6.68 21.38 7.168C21.5 7.648 21.56 8.268 21.56 9.028C21.56 9.82 21.5 10.468 21.38 10.972C21.26 11.476 21.064 11.868 20.792 12.148C20.52 12.428 20.16 12.624 19.712 12.736C19.264 12.84 18.708 12.892 18.044 12.892H14.72ZM17.768 6.916H16.64V11.272H17.768C18.232 11.272 18.596 11.22 18.86 11.116C19.132 11.012 19.324 10.8 19.436 10.48C19.556 10.16 19.616 9.676 19.616 9.028C19.616 8.412 19.556 7.956 19.436 7.66C19.324 7.356 19.132 7.156 18.86 7.06C18.596 6.964 18.232 6.916 17.768 6.916ZM22.7591 12.892V5.296H28.3991V6.856H24.6791V8.296H27.9071V9.856H24.6791V11.332H28.3991V12.892H22.7591ZM34.2767 5.296H36.1967V12.892H34.2887L32.1287 9.676C31.9607 9.42 31.8207 9.204 31.7087 9.028C31.5967 8.852 31.4927 8.676 31.3967 8.5C31.3007 8.324 31.1927 8.116 31.0727 7.876L31.0367 7.924C31.1487 8.308 31.2167 8.668 31.2407 9.004C31.2647 9.332 31.2767 9.652 31.2767 9.964V12.892H29.3567V5.296H31.2647L33.4247 8.512C33.5927 8.76 33.7327 8.976 33.8447 9.16C33.9567 9.336 34.0607 9.512 34.1567 9.688C34.2527 9.864 34.3607 10.072 34.4807 10.312L34.5167 10.264C34.4367 9.928 34.3767 9.604 34.3367 9.292C34.2967 8.972 34.2767 8.656 34.2767 8.344V5.296ZM39.2019 12.892V6.916H37.0419V5.296H43.2819V6.916H41.1219V12.892H39.2019Z" fill="#727272"/>
<path d="M47.5903 12.508C47.4543 12.076 47.3143 11.616 47.1703 11.128C47.0343 10.64 46.8983 10.156 46.7623 9.676C46.6263 9.196 46.5023 8.748 46.3903 8.332C46.2783 7.916 46.1823 7.556 46.1023 7.252C46.0223 6.948 45.9663 6.732 45.9343 6.604L45.8863 6.616C45.9103 6.76 45.9303 6.952 45.9463 7.192C45.9623 7.424 45.9743 7.672 45.9823 7.936C45.9903 8.192 45.9943 8.428 45.9943 8.644V12.892H44.1583V5.296H47.3743C47.4863 5.72 47.6023 6.168 47.7223 6.64C47.8503 7.104 47.9743 7.568 48.0943 8.032C48.2223 8.488 48.3343 8.924 48.4303 9.34C48.5263 9.748 48.5943 10.104 48.6343 10.408H48.6583C48.6983 10.104 48.7623 9.748 48.8503 9.34C48.9463 8.932 49.0543 8.496 49.1743 8.032C49.2943 7.568 49.4183 7.104 49.5463 6.64C49.6743 6.168 49.7903 5.72 49.8943 5.296H53.0623V12.892H51.2503V8.644C51.2503 8.428 51.2543 8.192 51.2623 7.936C51.2703 7.672 51.2823 7.424 51.2983 7.192C51.3223 6.952 51.3423 6.76 51.3583 6.616L51.3103 6.604C51.2783 6.732 51.2223 6.948 51.1423 7.252C51.0623 7.556 50.9623 7.92 50.8423 8.344C50.7303 8.76 50.6063 9.208 50.4703 9.688C50.3343 10.168 50.1943 10.652 50.0503 11.14C49.9143 11.62 49.7823 12.076 49.6543 12.508H47.5903ZM54.5403 12.892V5.296H60.1803V6.856H56.4603V8.296H59.6883V9.856H56.4603V11.332H60.1803V12.892H54.5403ZM61.138 12.892V5.296H64.462C65.126 5.296 65.682 5.352 66.13 5.464C66.578 5.568 66.938 5.756 67.21 6.028C67.482 6.3 67.678 6.68 67.798 7.168C67.918 7.648 67.978 8.268 67.978 9.028C67.978 9.82 67.918 10.468 67.798 10.972C67.678 11.476 67.482 11.868 67.21 12.148C66.938 12.428 66.578 12.624 66.13 12.736C65.682 12.84 65.126 12.892 64.462 12.892H61.138ZM64.186 6.916H63.058V11.272H64.186C64.65 11.272 65.014 11.22 65.278 11.116C65.55 11.012 65.742 10.8 65.854 10.48C65.974 10.16 66.034 9.676 66.034 9.028C66.034 8.412 65.974 7.956 65.854 7.66C65.742 7.356 65.55 7.156 65.278 7.06C65.014 6.964 64.65 6.916 64.186 6.916Z" fill="#F54A00"/>
<g clip-path="url(#clip0_1_11)">
<path d="M5.64855 5.70369C6.02922 5.18293 6.581 4.81125 7.20818 4.65312C7.83535 4.495 8.49834 4.56041 9.08213 4.83802C9.66592 5.11562 10.1337 5.5879 10.4042 6.17292C10.6748 6.75794 10.7311 7.41879 10.5634 8.04082C10.087 9.80884 9.27267 9.80884 8.99568 12.5662C8.99568 12.7856 8.90813 12.996 8.7523 13.1511C8.59646 13.3062 8.3851 13.3934 8.16471 13.3934C7.94433 13.3934 7.73297 13.3062 7.57713 13.1511C7.4213 12.996 7.33375 12.7856 7.33375 12.5662V11.0039C7.33375 10.4965 6.96203 10.0846 6.50278 10.0846C6.04353 10.0846 5.67182 10.496 5.67182 11.0039V12.5662C5.67182 12.6748 5.65032 12.7824 5.60856 12.8828C5.5668 12.9831 5.50559 13.0743 5.42843 13.1511C5.35127 13.2279 5.25966 13.2889 5.15885 13.3304C5.05803 13.372 4.94997 13.3934 4.84085 13.3934C4.73173 13.3934 4.62367 13.372 4.52285 13.3304C4.42204 13.2889 4.33043 13.2279 4.25327 13.1511C4.17611 13.0743 4.1149 12.9831 4.07314 12.8828C4.03138 12.7824 4.00988 12.6748 4.00988 12.5662C3.79217 9.80884 2.91855 9.80884 2.44213 8.04082C2.30033 7.51404 2.31865 6.95722 2.49477 6.44079C2.67088 5.92437 2.99688 5.47153 3.43153 5.13955C3.86618 4.80756 4.38997 4.61135 4.93665 4.57571C5.48333 4.54008 6.02835 4.66663 6.50278 4.93935" fill="#F54A00"/>
<path d="M4.91896 4.30185C4.31796 4.34014 3.74188 4.55509 3.26367 4.91949C2.93507 5.173 2.66223 5.49096 2.46207 5.85368C1.86931 6.0114 1.39012 6.1978 1.03945 6.42225C0.679923 6.65222 0.421216 6.94118 0.409583 7.3035C0.397395 7.66581 0.643361 7.96693 0.990705 8.20075C1.33528 8.43237 1.81059 8.62427 2.40556 8.7864C2.62106 9.30478 2.86813 9.67041 3.07975 10.0631C3.37336 10.6068 3.62819 11.2377 3.73455 12.5877L3.73345 12.5656C3.73345 12.9588 3.94507 13.325 4.28742 13.5213C4.45591 13.618 4.64695 13.6688 4.8414 13.6688C5.03585 13.6688 5.22689 13.618 5.39538 13.5213C5.73774 13.325 5.94936 12.9588 5.94936 12.5651V11.0044C5.94936 10.6311 6.21028 10.3592 6.50333 10.3592C6.79639 10.3592 7.05731 10.6311 7.05731 11.0044V12.5651C7.05731 12.9588 7.26893 13.325 7.61129 13.5213C7.77977 13.618 7.97081 13.6688 8.16526 13.6688C8.35972 13.6688 8.55076 13.618 8.71924 13.5213C9.0616 13.325 9.27322 12.9588 9.27322 12.5651L9.27211 12.5943C9.40784 11.2421 9.66322 10.6063 9.95018 10.0609C10.1579 9.66655 10.395 9.30038 10.605 8.78255C10.8944 8.70552 11.1785 8.60972 11.4553 8.49577C11.8791 8.31489 12.1899 8.11636 12.3893 7.86875C12.5888 7.62169 12.6508 7.2864 12.5278 7.00846C12.4043 6.72997 12.1522 6.51766 11.8077 6.3274C11.4808 6.14652 11.0526 5.98824 10.5368 5.85148C10.2342 5.30322 9.76759 4.86239 9.20176 4.59026C8.31816 4.17004 7.32987 4.24504 6.50389 4.66912C6.0042 4.41269 5.46075 4.26655 4.91896 4.30185ZM4.95497 4.85111C5.28292 4.82905 5.59813 4.96471 5.91446 5.0739C5.74438 5.22115 5.56268 5.3524 5.42585 5.54045C5.40318 5.56963 5.38661 5.60303 5.37712 5.63869C5.36763 5.67434 5.3654 5.71152 5.37057 5.74804C5.37575 5.78457 5.38822 5.81969 5.40725 5.85134C5.42627 5.883 5.45148 5.91053 5.48137 5.93233C5.51125 5.95413 5.54523 5.96975 5.58128 5.97827C5.61733 5.98679 5.65473 5.98806 5.69127 5.98196C5.72782 5.97586 5.76276 5.96254 5.79405 5.94278C5.82535 5.92302 5.85234 5.89722 5.87346 5.86691C6.21557 5.39798 6.71195 5.06324 7.2763 4.92087C7.84065 4.77851 8.43728 4.83753 8.96244 5.08769C9.4881 5.33695 9.90937 5.76175 10.153 6.28819C10.3966 6.81463 10.4472 7.40942 10.2959 7.96912C10.2604 8.09927 10.2205 8.20349 10.1817 8.31489C8.53366 8.70643 6.12441 8.82667 4.05919 8.54983C4.02232 8.54313 3.98448 8.54394 3.94794 8.55222C3.91141 8.5605 3.87694 8.57607 3.84662 8.59799C3.81631 8.61992 3.79078 8.64775 3.77158 8.67979C3.75238 8.71182 3.7399 8.7474 3.73491 8.78436C3.72993 8.82133 3.73252 8.85893 3.74255 8.89487C3.75258 8.93081 3.76983 8.96434 3.79326 8.99345C3.81668 9.02257 3.8458 9.04665 3.87884 9.06424C3.91189 9.08183 3.94818 9.09256 3.98551 9.09578C5.96875 9.36159 8.20903 9.30037 9.92359 8.95019C9.77678 9.24302 9.62056 9.49945 9.46046 9.80331C9.1519 10.3895 8.86161 11.134 8.72035 12.5392C8.71954 12.5481 8.71917 12.5572 8.71924 12.5662C8.71931 12.6386 8.70506 12.7103 8.67729 12.7773C8.64951 12.8442 8.60877 12.905 8.55738 12.9563C8.50599 13.0076 8.44496 13.0482 8.37777 13.076C8.31059 13.1038 8.23857 13.1181 8.16582 13.1182C8.09307 13.1183 8.02102 13.1041 7.95378 13.0764C7.88654 13.0488 7.82543 13.0082 7.77394 12.9571C7.72244 12.9059 7.68158 12.8452 7.65367 12.7783C7.62576 12.7114 7.61136 12.6397 7.61129 12.5673V11.0055C7.61129 10.3636 7.12877 9.80994 6.50333 9.80994C5.87734 9.80994 5.39538 10.3636 5.39538 11.0055V12.5684C5.39531 12.6408 5.3809 12.7125 5.353 12.7794C5.32509 12.8463 5.28422 12.907 5.23273 12.9582C5.18124 13.0093 5.12013 13.0499 5.05289 13.0775C4.98565 13.1052 4.9136 13.1194 4.84085 13.1193C4.7681 13.1192 4.69607 13.1049 4.62889 13.0771C4.56171 13.0493 4.50068 13.0087 4.44929 12.9574C4.3979 12.9061 4.35715 12.8453 4.32938 12.7784C4.30161 12.7114 4.28735 12.6397 4.28742 12.5673C4.28735 12.5599 4.28698 12.5526 4.28632 12.5452C4.17552 11.1384 3.88468 10.3912 3.56781 9.80331C3.25093 9.21599 2.93793 8.81453 2.7108 7.97133C2.58284 7.49738 2.59907 6.99628 2.75746 6.53153C2.91584 6.06677 3.20924 5.65927 3.60049 5.36066C3.99148 5.06145 4.46287 4.8845 4.95497 4.85221V4.85111ZM8.29711 5.72575V5.72684C8.23061 5.72937 8.16724 5.75565 8.1186 5.80087C8.06996 5.8461 8.03931 5.90724 8.03225 5.97312C8.02519 6.039 8.04219 6.10521 8.08014 6.15963C8.1181 6.21405 8.17447 6.25305 8.23894 6.26949C8.53531 6.34603 8.79773 6.51843 8.98495 6.7596C9.17217 7.00078 9.27357 7.29704 9.27322 7.60184C9.27322 7.67497 9.3024 7.74511 9.35435 7.79682C9.40629 7.84853 9.47675 7.87757 9.55021 7.87757C9.62367 7.87757 9.69412 7.84853 9.74607 7.79682C9.79801 7.74511 9.8272 7.67497 9.8272 7.60184C9.82686 7.17536 9.68465 6.76102 9.42276 6.4235C9.16088 6.08598 8.79408 5.84429 8.37965 5.73621C8.35286 5.72842 8.32503 5.7247 8.29711 5.72519V5.72575ZM10.8216 6.51599C11.1041 6.60974 11.3567 6.70791 11.5401 6.80938C11.8243 6.966 11.9755 7.12702 12.0215 7.23125C12.0675 7.33548 12.0647 7.39118 11.9578 7.52408C11.8503 7.65754 11.6121 7.82904 11.2371 7.98952C11.1152 8.04191 10.9656 8.08769 10.8238 8.13511C10.826 8.12684 10.8293 8.12078 10.831 8.11251C10.9717 7.58913 10.9685 7.03769 10.8216 6.51599ZM2.18951 6.5204C2.04176 7.04027 2.03678 7.59008 2.17511 8.11251C2.17732 8.11968 2.18009 8.12354 2.18176 8.1307C1.81502 8.00718 1.49926 7.87703 1.30093 7.74302C1.03447 7.56379 0.960235 7.41655 0.963005 7.3206C0.966883 7.22519 1.05718 7.06691 1.33916 6.88658C1.53748 6.75974 1.84106 6.63676 2.18951 6.5204Z" fill="#FFC8A0"/>
</g>
<defs>
<clipPath id="clip0_1_11">
<rect width="13" height="10" fill="white" transform="translate(0 4)"/>
</clipPath>
</defs>
</svg>
