<svg width="73" height="13" viewBox="0 0 73 13" fill="none" xmlns="http://www.w3.org/2000/svg">
<path d="M14.05 12V4.5H16.5083C17.1861 4.5 17.775 4.61111 18.275 4.83333C18.7806 5.05556 19.1972 5.35 19.525 5.71667C19.8528 6.08333 20.0972 6.48889 20.2583 6.93333C20.4194 7.37222 20.5 7.81111 20.5 8.25C20.5 8.68889 20.4194 9.13056 20.2583 9.575C20.0972 10.0139 19.8528 10.4167 19.525 10.7833C19.1972 11.15 18.7806 11.4444 18.275 11.6667C17.775 11.8889 17.1861 12 16.5083 12H14.05ZM15 11.15H16.4083C16.9861 11.15 17.4722 11.0611 17.8667 10.8833C18.2611 10.7 18.5806 10.4639 18.825 10.175C19.0694 9.88056 19.2444 9.56389 19.35 9.225C19.4611 8.88611 19.5167 8.56111 19.5167 8.25C19.5167 7.93889 19.4611 7.61389 19.35 7.275C19.2444 6.93611 19.0694 6.62222 18.825 6.33333C18.5806 6.03889 18.2611 5.80278 17.8667 5.625C17.4722 5.44167 16.9861 5.35 16.4083 5.35H15V11.15ZM22.0539 12V4.5H25.7539V5.35H23.0039V6.95H25.1706V7.8H23.0039V11.15H25.7539V12H22.0539ZM33.4539 12.25L28.2039 6.625V12H27.3039V4.25L32.5539 9.875V4.5H33.4539V12.25ZM34.9039 5.35V4.5H39.8539V5.35H37.8539V12H36.9039V5.35H34.9039Z" fill="#A9A9A9"/>
<path d="M41.3078 12V4.25L44.7911 9.05L48.2078 4.25V12H47.2578V8.53333C47.2578 8.30556 47.2606 8.05833 47.2661 7.79167C47.2717 7.51944 47.2911 7.21111 47.3245 6.86667C47.1523 7.17222 46.9828 7.44167 46.8161 7.675C46.655 7.90278 46.5078 8.11389 46.3745 8.30833L44.7578 10.6L43.0911 8.30833C42.9523 8.11389 42.8023 7.90278 42.6411 7.675C42.4856 7.44167 42.3189 7.17222 42.1411 6.86667C42.1745 7.21111 42.1939 7.51944 42.1995 7.79167C42.205 8.05833 42.2078 8.30556 42.2078 8.53333V12H41.3078ZM50.3078 12V4.5H54.0078V5.35H51.2578V6.95H53.4245V7.8H51.2578V11.15H54.0078V12H50.3078ZM55.5578 12V4.5H58.0161C58.6939 4.5 59.2828 4.61111 59.7828 4.83333C60.2884 5.05556 60.705 5.35 61.0328 5.71667C61.3606 6.08333 61.605 6.48889 61.7661 6.93333C61.9273 7.37222 62.0078 7.81111 62.0078 8.25C62.0078 8.68889 61.9273 9.13056 61.7661 9.575C61.605 10.0139 61.3606 10.4167 61.0328 10.7833C60.705 11.15 60.2884 11.4444 59.7828 11.6667C59.2828 11.8889 58.6939 12 58.0161 12H55.5578ZM56.5078 11.15H57.9161C58.4939 11.15 58.98 11.0611 59.3745 10.8833C59.7689 10.7 60.0884 10.4639 60.3328 10.175C60.5773 9.88056 60.7523 9.56389 60.8578 9.225C60.9689 8.88611 61.0245 8.56111 61.0245 8.25C61.0245 7.93889 60.9689 7.61389 60.8578 7.275C60.7523 6.93611 60.5773 6.62222 60.3328 6.33333C60.0884 6.03889 59.7689 5.80278 59.3745 5.625C58.98 5.44167 58.4939 5.35 57.9161 5.35H56.5078V11.15Z" fill="#FF6467"/>
<g clip-path="url(#clip0_1_11)">
<path d="M4.77953 5.53331C5.10163 5.06462 5.56853 4.73011 6.09921 4.5878C6.6299 4.44549 7.19089 4.50436 7.68486 4.7542C8.17884 5.00405 8.57463 5.4291 8.80358 5.95562C9.03253 6.48214 9.08018 7.0769 8.93828 7.63673C8.53515 9.22794 7.84609 9.22794 7.61171 11.7096C7.61171 11.907 7.53764 12.0964 7.40577 12.236C7.27391 12.3756 7.09507 12.454 6.90859 12.454C6.72211 12.454 6.54327 12.3756 6.4114 12.236C6.27954 12.0964 6.20546 11.907 6.20546 11.7096V10.3035C6.20546 9.84686 5.89093 9.47611 5.50234 9.47611C5.11375 9.47611 4.79921 9.84636 4.79921 10.3035V11.7096C4.79921 11.8073 4.78103 11.9041 4.74569 11.9945C4.71036 12.0848 4.65857 12.1669 4.59327 12.236C4.52798 12.3051 4.45047 12.36 4.36516 12.3974C4.27986 12.4348 4.18843 12.454 4.09609 12.454C4.00375 12.454 3.91232 12.4348 3.82702 12.3974C3.74171 12.36 3.6642 12.3051 3.5989 12.236C3.53361 12.1669 3.48182 12.0848 3.44649 11.9945C3.41115 11.9041 3.39296 11.8073 3.39296 11.7096C3.20875 9.22794 2.46953 9.22794 2.0664 7.63673C1.94642 7.16262 1.96192 6.66149 2.11094 6.1967C2.25996 5.73192 2.5358 5.32436 2.90359 5.02558C3.27137 4.7268 3.71458 4.5502 4.17715 4.51813C4.63973 4.48606 5.1009 4.59995 5.50234 4.84541" fill="#FF6467"/>
<path d="M4.16218 4.27166C3.65364 4.30613 3.1662 4.49958 2.76156 4.82754C2.48351 5.0557 2.25265 5.34186 2.08328 5.66832C1.58171 5.81026 1.17625 5.97802 0.879527 6.18003C0.575308 6.38699 0.356402 6.64706 0.346558 6.97315C0.336246 7.29923 0.544371 7.57023 0.838277 7.78067C1.12984 7.98913 1.53203 8.16184 2.03546 8.30776C2.21781 8.7743 2.42687 9.10337 2.60593 9.45675C2.85437 9.94613 3.07 10.5139 3.16 11.7289L3.15906 11.7091C3.15906 12.0629 3.33812 12.3925 3.62781 12.5692C3.77037 12.6562 3.93202 12.702 4.09656 12.702C4.2611 12.702 4.42274 12.6562 4.56531 12.5692C4.855 12.3925 5.03406 12.0629 5.03406 11.7086V10.304C5.03406 9.96796 5.25484 9.72327 5.50281 9.72327C5.75078 9.72327 5.97156 9.96796 5.97156 10.304V11.7086C5.97156 12.0629 6.15062 12.3925 6.44031 12.5692C6.58287 12.6562 6.74452 12.702 6.90906 12.702C7.0736 12.702 7.23524 12.6562 7.37781 12.5692C7.6675 12.3925 7.84656 12.0629 7.84656 11.7086L7.84562 11.7349C7.96046 10.5179 8.17656 9.94563 8.41937 9.45477C8.59515 9.0999 8.79578 8.77034 8.97343 8.30429C9.21834 8.23497 9.45869 8.14874 9.69296 8.04619C10.0516 7.8834 10.3145 7.70473 10.4833 7.48188C10.652 7.25952 10.7045 6.95776 10.6005 6.70761C10.4959 6.45697 10.2827 6.26589 9.99109 6.09466C9.71453 5.93187 9.35218 5.78942 8.91578 5.66633C8.65972 5.1729 8.26487 4.77615 7.78609 4.53123C7.03843 4.15303 6.20218 4.22053 5.50328 4.60221C5.08046 4.37142 4.62062 4.2399 4.16218 4.27166ZM4.19265 4.766C4.47015 4.74615 4.73687 4.86824 5.00453 4.96651C4.86062 5.09903 4.70687 5.21716 4.59109 5.38641C4.57191 5.41267 4.55789 5.44273 4.54986 5.47482C4.54182 5.50691 4.53994 5.54037 4.54432 5.57324C4.5487 5.60611 4.55925 5.63772 4.57535 5.66621C4.59145 5.6947 4.61278 5.71948 4.63807 5.7391C4.66336 5.75872 4.6921 5.77278 4.72261 5.78045C4.75311 5.78811 4.78476 5.78925 4.81568 5.78376C4.8466 5.77828 4.87617 5.76628 4.90265 5.7485C4.92913 5.73072 4.95197 5.7075 4.96984 5.68022C5.25932 5.25818 5.67933 4.95691 6.15686 4.82878C6.63439 4.70066 7.13922 4.75378 7.58359 4.97892C8.02838 5.20325 8.38484 5.58557 8.59098 6.05937C8.79712 6.53317 8.83989 7.06848 8.71187 7.57221C8.68187 7.68934 8.64812 7.78314 8.61531 7.8834C7.22078 8.23579 5.18218 8.344 3.43468 8.09484C3.40349 8.08882 3.37147 8.08954 3.34056 8.097C3.30964 8.10445 3.28047 8.11846 3.25482 8.13819C3.22917 8.15793 3.20757 8.18298 3.19132 8.21181C3.17508 8.24064 3.16452 8.27266 3.1603 8.30593C3.15608 8.3392 3.15828 8.37303 3.16676 8.40538C3.17525 8.43773 3.18984 8.46791 3.20967 8.49411C3.22949 8.52031 3.25413 8.54199 3.28209 8.55782C3.31005 8.57364 3.34075 8.5833 3.37234 8.5862C5.05046 8.82543 6.94609 8.77033 8.39687 8.45517C8.27265 8.71872 8.14046 8.9495 8.005 9.22298C7.7439 9.75057 7.49828 10.4206 7.37875 11.6852C7.37806 11.6933 7.37775 11.7014 7.37781 11.7096C7.37787 11.7747 7.36581 11.8393 7.34231 11.8995C7.31881 11.9598 7.28433 12.0145 7.24085 12.0607C7.19736 12.1068 7.14572 12.1434 7.08887 12.1684C7.03203 12.1934 6.97108 12.2063 6.90953 12.2064C6.84797 12.2065 6.787 12.1937 6.73011 12.1688C6.67321 12.1439 6.6215 12.1074 6.57793 12.0614C6.53436 12.0153 6.49978 11.9606 6.47617 11.9005C6.45256 11.8403 6.44037 11.7757 6.44031 11.7106V10.305C6.44031 9.72725 6.03203 9.22895 5.50281 9.22895C4.97312 9.22895 4.56531 9.72725 4.56531 10.305V11.7115C4.56525 11.7767 4.55306 11.8412 4.52945 11.9014C4.50583 11.9616 4.47125 12.0163 4.42768 12.0624C4.38411 12.1084 4.3324 12.1449 4.27551 12.1698C4.21861 12.1947 4.15765 12.2074 4.09609 12.2074C4.03453 12.2073 3.97359 12.1944 3.91674 12.1694C3.85989 12.1444 3.80825 12.1078 3.76477 12.0617C3.72129 12.0155 3.68681 11.9608 3.66331 11.9005C3.63981 11.8403 3.62775 11.7757 3.62781 11.7106C3.62775 11.7039 3.62743 11.6973 3.62687 11.6907C3.53312 10.4246 3.28703 9.75206 3.0189 9.22298C2.75078 8.69439 2.48593 8.33307 2.29375 7.5742C2.18546 7.14764 2.1992 6.69665 2.33322 6.27837C2.46724 5.86009 2.7155 5.49334 3.04656 5.2246C3.37739 4.95531 3.77626 4.79605 4.19265 4.76699V4.766ZM7.02062 5.55317V5.55416C6.96435 5.55643 6.91073 5.58008 6.86957 5.62079C6.82842 5.66149 6.80248 5.71652 6.79651 5.77581C6.79053 5.8351 6.80492 5.89468 6.83703 5.94367C6.86915 5.99265 6.91685 6.02775 6.9714 6.04254C7.22218 6.11142 7.44422 6.26658 7.60264 6.48364C7.76106 6.7007 7.84686 6.96734 7.84656 7.24165C7.84656 7.30747 7.87125 7.3706 7.91521 7.41714C7.95916 7.46368 8.01877 7.48981 8.08093 7.48981C8.14309 7.48981 8.20271 7.46368 8.24666 7.41714C8.29062 7.3706 8.31531 7.30747 8.31531 7.24165C8.31502 6.85782 8.19469 6.48492 7.9731 6.18115C7.7515 5.87738 7.44113 5.65986 7.09046 5.56259C7.06779 5.55557 7.04424 5.55223 7.02062 5.55267V5.55317ZM9.15671 6.26439C9.39578 6.34877 9.60953 6.43712 9.76468 6.52844C10.0052 6.6694 10.1331 6.81432 10.172 6.90812C10.2109 7.00193 10.2086 7.05206 10.1181 7.17168C10.0272 7.29179 9.82562 7.44614 9.50828 7.59057C9.40515 7.63772 9.27859 7.67892 9.15859 7.7216C9.16046 7.71416 9.16328 7.70871 9.16468 7.70126C9.28377 7.23022 9.28101 6.73392 9.15671 6.26439ZM1.85265 6.26836C1.72763 6.73624 1.72342 7.23107 1.84046 7.70126C1.84234 7.70771 1.84468 7.71118 1.84609 7.71763C1.53578 7.60646 1.26859 7.48932 1.10078 7.36872C0.875308 7.20741 0.812495 7.0749 0.814839 6.98854C0.81812 6.90267 0.894527 6.76022 1.13312 6.59792C1.30093 6.48377 1.55781 6.37309 1.85265 6.26836Z" fill="#FFBABB"/>
</g>
<defs>
<clipPath id="clip0_1_11">
<rect width="11" height="9" fill="white" transform="translate(0 4)"/>
</clipPath>
</defs>
</svg>
