<svg width="11" height="9" viewBox="0 0 11 9" fill="none" xmlns="http://www.w3.org/2000/svg">
<g clip-path="url(#clip0_1_3)">
<path d="M4.77953 1.53331C5.10163 1.06462 5.56853 0.730108 6.09921 0.587798C6.6299 0.445487 7.19089 0.504361 7.68486 0.754205C8.17884 1.00405 8.57463 1.4291 8.80358 1.95562C9.03253 2.48214 9.08018 3.0769 8.93828 3.63673C8.53515 5.22794 7.84609 5.22794 7.61171 7.70956C7.61171 7.90701 7.53764 8.09637 7.40577 8.23599C7.27391 8.37561 7.09507 8.45405 6.90859 8.45405C6.72211 8.45405 6.54327 8.37561 6.4114 8.23599C6.27954 8.09637 6.20546 7.90701 6.20546 7.70956V6.30348C6.20546 5.84686 5.89093 5.47611 5.50234 5.47611C5.11375 5.47611 4.79921 5.84636 4.79921 6.30348V7.70956C4.79921 7.80733 4.78103 7.90414 4.74569 7.99446C4.71036 8.08479 4.65857 8.16686 4.59327 8.23599C4.52798 8.30512 4.45047 8.35996 4.36516 8.39738C4.27986 8.43479 4.18843 8.45405 4.09609 8.45405C4.00375 8.45405 3.91232 8.43479 3.82702 8.39738C3.74171 8.35996 3.6642 8.30512 3.5989 8.23599C3.53361 8.16686 3.48182 8.08479 3.44649 7.99446C3.41115 7.90414 3.39296 7.80733 3.39296 7.70956C3.20875 5.22794 2.46953 5.22794 2.0664 3.63673C1.94642 3.16262 1.96192 2.66149 2.11094 2.1967C2.25996 1.73192 2.5358 1.32436 2.90359 1.02558C3.27137 0.726795 3.71458 0.550201 4.17715 0.518131C4.63973 0.48606 5.1009 0.599953 5.50234 0.845407" fill="#FF6467"/>
<path d="M4.16218 0.271663C3.65364 0.306125 3.1662 0.499581 2.76156 0.827543C2.48351 1.0557 2.25265 1.34186 2.08328 1.66832C1.58171 1.81026 1.17625 1.97802 0.879527 2.18003C0.575308 2.38699 0.356402 2.64706 0.346558 2.97315C0.336246 3.29923 0.544371 3.57023 0.838277 3.78067C1.12984 3.98913 1.53203 4.16184 2.03546 4.30776C2.21781 4.7743 2.42687 5.10337 2.60593 5.45675C2.85437 5.94613 3.07 6.51392 3.16 7.72892L3.15906 7.70906C3.15906 8.06294 3.33812 8.3925 3.62781 8.56919C3.77037 8.65617 3.93202 8.70195 4.09656 8.70195C4.2611 8.70195 4.42274 8.65617 4.56531 8.56919C4.855 8.3925 5.03406 8.06294 5.03406 7.70856V6.30398C5.03406 5.96796 5.25484 5.72327 5.50281 5.72327C5.75078 5.72327 5.97156 5.96796 5.97156 6.30398V7.70856C5.97156 8.06294 6.15062 8.3925 6.44031 8.56919C6.58287 8.65617 6.74452 8.70195 6.90906 8.70195C7.0736 8.70195 7.23524 8.65617 7.37781 8.56919C7.6675 8.3925 7.84656 8.06294 7.84656 7.70856L7.84562 7.73487C7.96046 6.51789 8.17656 5.94563 8.41937 5.45477C8.59515 5.0999 8.79578 4.77034 8.97343 4.30429C9.21834 4.23497 9.45869 4.14874 9.69296 4.04619C10.0516 3.8834 10.3145 3.70473 10.4833 3.48188C10.652 3.25952 10.7045 2.95776 10.6005 2.70761C10.4959 2.45697 10.2827 2.26589 9.99109 2.09466C9.71453 1.93187 9.35218 1.78942 8.91578 1.66633C8.65972 1.1729 8.26487 0.776153 7.78609 0.53123C7.03843 0.153032 6.20218 0.220534 5.50328 0.602207C5.08046 0.371417 4.62062 0.239898 4.16218 0.271663ZM4.19265 0.766002C4.47015 0.746149 4.73687 0.868241 5.00453 0.966513C4.86062 1.09903 4.70687 1.21716 4.59109 1.38641C4.57191 1.41267 4.55789 1.44273 4.54986 1.47482C4.54182 1.50691 4.53994 1.54037 4.54432 1.57324C4.5487 1.60611 4.55925 1.63772 4.57535 1.66621C4.59145 1.6947 4.61278 1.71948 4.63807 1.7391C4.66336 1.75872 4.6921 1.77278 4.72261 1.78045C4.75311 1.78811 4.78476 1.78925 4.81568 1.78376C4.8466 1.77828 4.87617 1.76628 4.90265 1.7485C4.92913 1.73072 4.95197 1.7075 4.96984 1.68022C5.25932 1.25818 5.67933 0.956912 6.15686 0.828785C6.63439 0.700658 7.13922 0.753778 7.58359 0.978918C8.02838 1.20325 8.38484 1.58557 8.59098 2.05937C8.79712 2.53317 8.83989 3.06848 8.71187 3.57221C8.68187 3.68934 8.64812 3.78314 8.61531 3.8834C7.22078 4.23579 5.18218 4.344 3.43468 4.09484C3.40349 4.08882 3.37147 4.08954 3.34056 4.097C3.30964 4.10445 3.28047 4.11846 3.25482 4.13819C3.22917 4.15793 3.20757 4.18298 3.19132 4.21181C3.17508 4.24064 3.16452 4.27266 3.1603 4.30593C3.15608 4.3392 3.15828 4.37303 3.16676 4.40538C3.17525 4.43773 3.18984 4.46791 3.20967 4.49411C3.22949 4.52031 3.25413 4.54199 3.28209 4.55782C3.31005 4.57364 3.34075 4.5833 3.37234 4.5862C5.05046 4.82543 6.94609 4.77033 8.39687 4.45517C8.27265 4.71872 8.14046 4.9495 8.005 5.22298C7.7439 5.75057 7.49828 6.42061 7.37875 7.68524C7.37806 7.69332 7.37775 7.70145 7.37781 7.70956C7.37787 7.77474 7.36581 7.83929 7.34231 7.89953C7.31881 7.95977 7.28433 8.01453 7.24085 8.06066C7.19736 8.1068 7.14572 8.14341 7.08887 8.16842C7.03203 8.19342 6.97108 8.20632 6.90953 8.20639C6.84797 8.20645 6.787 8.19368 6.73011 8.16879C6.67321 8.14391 6.6215 8.1074 6.57793 8.06136C6.53436 8.01532 6.49978 7.96065 6.47617 7.90046C6.45256 7.84026 6.44037 7.77574 6.44031 7.71056V6.30498C6.44031 5.72725 6.03203 5.22895 5.50281 5.22895C4.97312 5.22895 4.56531 5.72725 4.56531 6.30498V7.71155C4.56525 7.77673 4.55306 7.84125 4.52945 7.90144C4.50583 7.96163 4.47125 8.01632 4.42768 8.06236C4.38411 8.1084 4.3324 8.14491 4.27551 8.16979C4.21861 8.19468 4.15765 8.20744 4.09609 8.20737C4.03453 8.20731 3.97359 8.1944 3.91674 8.1694C3.85989 8.1444 3.80825 8.1078 3.76477 8.06166C3.72129 8.01553 3.68681 7.96077 3.66331 7.90053C3.63981 7.84029 3.62775 7.77574 3.62781 7.71056C3.62775 7.70394 3.62743 7.69731 3.62687 7.69071C3.53312 6.42459 3.28703 5.75206 3.0189 5.22298C2.75078 4.69439 2.48593 4.33307 2.29375 3.5742C2.18546 3.14764 2.1992 2.69665 2.33322 2.27837C2.46724 1.86009 2.7155 1.49334 3.04656 1.2246C3.37739 0.955309 3.77626 0.796049 4.19265 0.766987V0.766002ZM7.02062 1.55317V1.55416C6.96435 1.55643 6.91073 1.58008 6.86957 1.62079C6.82842 1.66149 6.80248 1.71652 6.79651 1.77581C6.79053 1.8351 6.80492 1.89468 6.83703 1.94367C6.86915 1.99265 6.91685 2.02775 6.9714 2.04254C7.22218 2.11142 7.44422 2.26658 7.60264 2.48364C7.76106 2.7007 7.84686 2.96734 7.84656 3.24165C7.84656 3.30747 7.87125 3.3706 7.91521 3.41714C7.95916 3.46368 8.01877 3.48981 8.08093 3.48981C8.14309 3.48981 8.20271 3.46368 8.24666 3.41714C8.29062 3.3706 8.31531 3.30747 8.31531 3.24165C8.31502 2.85782 8.19469 2.48492 7.9731 2.18115C7.7515 1.87738 7.44113 1.65986 7.09046 1.56259C7.06779 1.55557 7.04424 1.55223 7.02062 1.55267V1.55317ZM9.15671 2.26439C9.39578 2.34877 9.60953 2.43712 9.76468 2.52844C10.0052 2.6694 10.1331 2.81432 10.172 2.90812C10.2109 3.00193 10.2086 3.05206 10.1181 3.17168C10.0272 3.29179 9.82562 3.44614 9.50828 3.59057C9.40515 3.63772 9.27859 3.67892 9.15859 3.7216C9.16046 3.71416 9.16328 3.70871 9.16468 3.70126C9.28377 3.23022 9.28101 2.73392 9.15671 2.26439ZM1.85265 2.26836C1.72763 2.73624 1.72342 3.23107 1.84046 3.70126C1.84234 3.70771 1.84468 3.71118 1.84609 3.71763C1.53578 3.60646 1.26859 3.48932 1.10078 3.36872C0.875308 3.20741 0.812495 3.0749 0.814839 2.98854C0.81812 2.90267 0.894527 2.76022 1.13312 2.59792C1.30093 2.48377 1.55781 2.37309 1.85265 2.26836Z" fill="#FFBABB"/>
</g>
<defs>
<clipPath id="clip0_1_3">
<rect width="11" height="9" fill="white"/>
</clipPath>
</defs>
</svg>
