<svg width="13" height="10" viewBox="0 0 13 10" fill="none" xmlns="http://www.w3.org/2000/svg">
<g clip-path="url(#clip0_1_3)">
<path d="M5.64855 1.70369C6.02922 1.18293 6.581 0.811245 7.20818 0.653122C7.83535 0.495 8.49834 0.560415 9.08213 0.838019C9.66592 1.11562 10.1337 1.5879 10.4042 2.17292C10.6748 2.75794 10.7311 3.41879 10.5634 4.04082C10.087 5.80884 9.27267 5.80884 8.99568 8.56619C8.99568 8.78558 8.90813 8.99598 8.7523 9.15111C8.59646 9.30625 8.3851 9.3934 8.16471 9.3934C7.94433 9.3934 7.73297 9.30625 7.57713 9.15111C7.4213 8.99598 7.33375 8.78558 7.33375 8.56619V7.00388C7.33375 6.49652 6.96203 6.08457 6.50278 6.08457C6.04353 6.08457 5.67182 6.49597 5.67182 7.00388V8.56619C5.67182 8.67482 5.65032 8.78239 5.60856 8.88275C5.5668 8.98311 5.50559 9.0743 5.42843 9.15111C5.35127 9.22793 5.25966 9.28886 5.15885 9.33043C5.05803 9.372 4.94997 9.3934 4.84085 9.3934C4.73173 9.3934 4.62367 9.372 4.52285 9.33043C4.42204 9.28886 4.33043 9.22793 4.25327 9.15111C4.17611 9.0743 4.1149 8.98311 4.07314 8.88275C4.03138 8.78239 4.00988 8.67482 4.00988 8.56619C3.79217 5.80884 2.91855 5.80884 2.44213 4.04082C2.30033 3.51404 2.31865 2.95722 2.49477 2.44079C2.67088 1.92437 2.99688 1.47153 3.43153 1.13955C3.86618 0.807564 4.38997 0.611348 4.93665 0.575714C5.48333 0.54008 6.02835 0.666628 6.50278 0.939355" fill="#FF964B"/>
<path d="M4.91896 0.301848C4.31796 0.340139 3.74188 0.555091 3.26367 0.919492C2.93507 1.173 2.66223 1.49096 2.46207 1.85368C1.86931 2.0114 1.39012 2.1978 1.03945 2.42225C0.679923 2.65222 0.421216 2.94118 0.409583 3.3035C0.397395 3.66581 0.643361 3.96693 0.990705 4.20075C1.33528 4.43237 1.81059 4.62427 2.40556 4.7864C2.62106 5.30478 2.86813 5.67041 3.07975 6.06306C3.37336 6.60681 3.62819 7.23769 3.73455 8.58769L3.73345 8.56563C3.73345 8.95883 3.94507 9.325 4.28742 9.52133C4.45591 9.61797 4.64695 9.66884 4.8414 9.66884C5.03585 9.66884 5.22689 9.61797 5.39538 9.52133C5.73774 9.325 5.94936 8.95882 5.94936 8.56507V7.00442C5.94936 6.63107 6.21028 6.35919 6.50333 6.35919C6.79639 6.35919 7.05731 6.63107 7.05731 7.00442V8.56507C7.05731 8.95882 7.26893 9.325 7.61129 9.52133C7.77977 9.61797 7.97081 9.66884 8.16526 9.66884C8.35972 9.66884 8.55076 9.61797 8.71924 9.52133C9.0616 9.325 9.27322 8.95882 9.27322 8.56507L9.27211 8.5943C9.40784 7.2421 9.66322 6.60626 9.95018 6.06085C10.1579 5.66655 10.395 5.30038 10.605 4.78255C10.8944 4.70552 11.1785 4.60972 11.4553 4.49577C11.8791 4.31489 12.1899 4.11636 12.3893 3.86875C12.5888 3.62169 12.6508 3.2864 12.5278 3.00846C12.4043 2.72997 12.1522 2.51766 11.8077 2.3274C11.4808 2.14652 11.0526 1.98824 10.5368 1.85148C10.2342 1.30322 9.76759 0.862393 9.20176 0.590256C8.31816 0.170035 7.32987 0.245038 6.50389 0.669119C6.0042 0.412685 5.46075 0.266554 4.91896 0.301848ZM4.95497 0.851114C5.28292 0.829055 5.59813 0.964712 5.91446 1.0739C5.74438 1.22115 5.56268 1.3524 5.42585 1.54045C5.40318 1.56963 5.38661 1.60303 5.37712 1.63869C5.36763 1.67434 5.3654 1.71152 5.37057 1.74804C5.37575 1.78457 5.38822 1.81969 5.40725 1.85134C5.42627 1.883 5.45148 1.91053 5.48136 1.93233C5.51125 1.95413 5.54523 1.96975 5.58128 1.97827C5.61733 1.98679 5.65473 1.98806 5.69127 1.98196C5.72782 1.97586 5.76276 1.96254 5.79405 1.94278C5.82535 1.92302 5.85234 1.89722 5.87346 1.86691C6.21557 1.39798 6.71195 1.06324 7.2763 0.920872C7.84065 0.778509 8.43728 0.837531 8.96244 1.08769C9.4881 1.33695 9.90937 1.76175 10.153 2.28819C10.3966 2.81463 10.4472 3.40942 10.2959 3.96912C10.2604 4.09927 10.2205 4.20349 10.1817 4.31489C8.53366 4.70643 6.12441 4.82667 4.05919 4.54983C4.02232 4.54313 3.98448 4.54394 3.94794 4.55222C3.91141 4.5605 3.87694 4.57607 3.84662 4.59799C3.81631 4.61992 3.79078 4.64775 3.77158 4.67979C3.75238 4.71182 3.7399 4.74739 3.73491 4.78436C3.72993 4.82133 3.73252 4.85893 3.74255 4.89487C3.75258 4.93081 3.76983 4.96434 3.79326 4.99345C3.81668 5.02257 3.8458 5.04665 3.87884 5.06424C3.91189 5.08183 3.94818 5.09256 3.98551 5.09578C5.96875 5.36159 8.20903 5.30037 9.92359 4.95019C9.77678 5.24302 9.62056 5.49945 9.46046 5.80331C9.1519 6.38952 8.86161 7.13401 8.72035 8.53915C8.71954 8.54814 8.71917 8.55716 8.71924 8.56618C8.71931 8.6386 8.70506 8.71032 8.67729 8.77726C8.64951 8.84419 8.60877 8.90503 8.55738 8.95629C8.50599 9.00755 8.44496 9.04824 8.37777 9.07602C8.31059 9.1038 8.23857 9.11814 8.16582 9.11821C8.09307 9.11828 8.02102 9.10408 7.95378 9.07644C7.88654 9.04879 7.82543 9.00822 7.77394 8.95707C7.72244 8.90591 7.68158 8.84517 7.65367 8.77829C7.62576 8.71141 7.61136 8.63971 7.61129 8.56729V7.00553C7.61129 6.36362 7.12877 5.80994 6.50333 5.80994C5.87734 5.80994 5.39538 6.36362 5.39538 7.00553V8.56839C5.39531 8.64081 5.3809 8.7125 5.353 8.77938C5.32509 8.84626 5.28422 8.90702 5.23273 8.95818C5.18124 9.00933 5.12013 9.0499 5.05289 9.07755C4.98565 9.1052 4.9136 9.11938 4.84085 9.1193C4.7681 9.11923 4.69608 9.10489 4.62889 9.07711C4.56171 9.04933 4.50068 9.00866 4.44929 8.9574C4.3979 8.90614 4.35715 8.8453 4.32938 8.77837C4.30161 8.71143 4.28735 8.63971 4.28742 8.56729C4.28735 8.55993 4.28698 8.55257 4.28632 8.54523C4.17552 7.13843 3.88468 6.39118 3.56781 5.80331C3.25093 5.21599 2.93793 4.81453 2.7108 3.97133C2.58284 3.49738 2.59907 2.99628 2.75746 2.53153C2.91584 2.06677 3.20924 1.65927 3.60049 1.36066C3.99148 1.06145 4.46287 0.884498 4.95497 0.852208V0.851114ZM8.29711 1.72575V1.72684C8.23061 1.72937 8.16724 1.75565 8.1186 1.80087C8.06996 1.8461 8.03931 1.90724 8.03225 1.97312C8.02519 2.039 8.04219 2.10521 8.08014 2.15963C8.1181 2.21405 8.17447 2.25305 8.23894 2.26949C8.53531 2.34603 8.79773 2.51843 8.98495 2.7596C9.17217 3.00078 9.27357 3.29704 9.27322 3.60184C9.27322 3.67497 9.3024 3.74511 9.35435 3.79682C9.40629 3.84853 9.47675 3.87757 9.55021 3.87757C9.62367 3.87757 9.69412 3.84853 9.74607 3.79682C9.79801 3.74511 9.8272 3.67497 9.8272 3.60184C9.82686 3.17536 9.68465 2.76102 9.42276 2.4235C9.16088 2.08598 8.79408 1.84429 8.37965 1.73621C8.35286 1.72842 8.32503 1.7247 8.29711 1.72519V1.72575ZM10.8216 2.51599C11.1041 2.60974 11.3567 2.70791 11.5401 2.80938C11.8243 2.966 11.9755 3.12702 12.0215 3.23125C12.0675 3.33548 12.0647 3.39118 11.9578 3.52408C11.8503 3.65754 11.6121 3.82904 11.2371 3.98952C11.1152 4.04191 10.9656 4.08769 10.8238 4.13511C10.826 4.12684 10.8293 4.12078 10.831 4.11251C10.9717 3.58913 10.9685 3.03769 10.8216 2.51599ZM2.18951 2.5204C2.04176 3.04027 2.03678 3.59008 2.17511 4.11251C2.17732 4.11968 2.18009 4.12354 2.18176 4.1307C1.81502 4.00718 1.49926 3.87703 1.30093 3.74302C1.03447 3.56379 0.960235 3.41655 0.963005 3.3206C0.966883 3.22519 1.05718 3.06691 1.33916 2.88658C1.53748 2.75974 1.84106 2.63676 2.18951 2.5204Z" fill="#FFDDC5"/>
</g>
<defs>
<clipPath id="clip0_1_3">
<rect width="13" height="10" fill="white"/>
</clipPath>
</defs>
</svg>
